# xmcd CD database file
#
# Track frame offsets:
#	150
#	14099
#	20713
#	44235
#	52091
#	69204
#	82538
#	103808
#	110742
#	134762
#	139674
#	153462
#	159142
#	173628
#	181561
#	198827
#	205211
#	220370
#	224130
#	230834
#	241181
#	244890
#	258112
#	259939
#
# Disc length: 3670 seconds
#
# Revision: 1
# Processed by: cddbd v1.5.2PL0 Copyright (c) Steve Scherf et al.
# Submitted via: CDex 1.51
#
DISCID=640e5418
DTITLE=David Barrett, Joe Filisko, Dennis Gruenling, Kinya Pollard - History of the Blues Harmonica Concert Disk 1 of 2
DYEAR=2010
DGENRE=Blues
TTITLE0=Concert Intro - Filisko
TTITLE1=Train Imitation Medley Intro - Filisko
TTITLE2=Train Imitation Medley - Filisko
TTITLE3=1st Position Medley Intro - Filisko
TTITLE4=1st Position Medley - Filisko
TTITLE5=Lost John - Fox Chase Medley Intro - Filisko
TTITLE6=Lost John - Fox Chase Medley - Filisko
TTITLE7=Sonny Terry Medley Intro - Filisko
TTITLE8=Sonny Terry Medley - Filisko
TTITLE9=Mean Low Blues Intro - Filisko
TTITLE10=Mean Low Blues - Filisko
TTITLE11=Stove Pipe Blues Intro - Filisko
TTITLE12=Stove Pipe Blues - Filisko
TTITLE13=Sugar Mama Blues Intro - Filisko
TTITLE14=Sugar Mama Blues - Filisko
TTITLE15=Bye Bye Bird Intro - Filisko
TTITLE16=Bye Bye Bird - Filisko
TTITLE17=Intro - Barret
TTITLE18=Evan's Shuffle Intro - Barret
TTITLE19=Evan's Shuffle - Barret
TTITLE20=Juke Intro - Barret
TTITLE21=Juke - Barret
TTITLE22=Blue Light Intro - Barret
TTITLE23=Blue Light - Filisko
EXTD=YEAR: 2010
EXTT0=
EXTT1=
EXTT2=
EXTT3=
EXTT4=
EXTT5=
EXTT6=
EXTT7=
EXTT8=
EXTT9=
EXTT10=
EXTT11=
EXTT12=
EXTT13=
EXTT14=
EXTT15=
EXTT16=
EXTT17=
EXTT18=
EXTT19=
EXTT20=
EXTT21=
EXTT22=
EXTT23=
PLAYORDER=
